<?xml version="1.0" encoding="UTF-8" standalone="no"?>
<!-- Created with Inkscape (http://www.inkscape.org/) -->

<svg
   width="128"
   height="128"
   viewBox="0 0 128 128"
   version="1.1"
   id="svg1"
   xmlns="http://www.w3.org/2000/svg"
   xmlns:svg="http://www.w3.org/2000/svg">

   <style>
      path {
         fill: black; /* Color por defecto (tema claro) */
      }

      @media (prefers-color-scheme: dark) {
         path {
            fill: white; /* Color para tema oscuro */
         }
      }
   </style>

   <path
      id="path5"
      d="m 82.585696,30.933764 c -0.747144,0 -1.43525,0.402885 -1.804283,1.05041 L 69.52135,51.820845 59.689679,36.868685 c -0.310145,-0.901236 -1.151178,-1.59963 -2.238647,-1.59963 H 42.256629 c -0.850444,0 -1.634316,0.457297 -2.054877,1.19659 l -29.304981,51.62463 c -0.894856,1.574525 0.245661,3.527123 2.056966,3.527123 h 15.192314 c 0.850445,0 1.636771,-0.457298 2.054878,-1.196591 l 28.127184,-49.548868 9.345101,14.208728 -0.405129,0.714195 -18.581609,32.731866 c -0.78444,1.379703 0.21393,3.09067 1.802195,3.09067 h 17.449755 c 0.746899,0 1.435497,-0.400551 1.804283,-1.048322 L 100.83945,35.784862 118.32887,60.662667 102.059,32.548012 c -0.20439,-0.887004 -0.98981,-1.614248 -2.02355,-1.614248 z M 22.71023,33.10141 c -0.889703,0 -1.612159,0.721349 -1.612159,1.610071 v 30.898346 h 0.0188 l 13.8746,-24.44344 c 0.13716,-0.241932 0.210917,-0.515303 0.210917,-0.79355 v -5.661356 c 0,-0.888722 -0.722457,-1.610072 -1.61216,-1.610071 z"
      style="stroke-width:1.0692" 
   />
</svg>
